<svg xmlns="http://www.w3.org/2000/svg" width="326" height="359" viewBox="0 0 326 359" version="1.1">
	<path d="M 122.137 2.750 C 117.916 6.292, 106.762 38.034, 101.632 61.101 C 96.955 82.132, 95.581 94.933, 95.581 117.500 C 95.582 140.854, 96.970 151.503, 102.125 167.684 C 108.462 187.573, 116.114 200.138, 129.785 213.105 C 146.938 229.374, 163.099 235.923, 197.750 240.648 C 200.896 241.076, 201 241.242, 200.987 245.795 C 200.966 253.104, 197.560 267.888, 193.732 277.276 C 186.674 294.589, 171.951 312.957, 157.123 322.950 C 153.615 325.314, 146.640 329.185, 141.623 331.553 C 117.927 342.735, 89.391 344.091, 67.833 335.058 C 45.629 325.753, 27.052 304.506, 20.876 281.350 C 18.050 270.754, 17.803 253.017, 20.363 244.500 C 22.808 236.364, 27.400 227.430, 31.926 222 C 38.802 213.752, 39.707 209.616, 35.545 205.455 C 31.634 201.543, 26.325 202.043, 21.802 206.750 C 12.806 216.112, 5.256 230.585, 2.442 243.862 C 0.564 252.720, 0.627 270.277, 2.569 279.681 C 11.325 322.073, 45.247 353.178, 88.218 358.220 C 111.715 360.977, 139.993 354.364, 161.620 341.054 C 193.648 321.344, 215.301 286.363, 218.554 249.078 L 219.251 241.085 223.875 240.503 C 256.878 236.350, 276.265 228.019, 293.502 210.583 C 307.981 195.937, 316.554 178.711, 322.160 153 C 324.210 143.593, 324.449 139.845, 324.451 117 C 324.452 95.010, 324.141 89.710, 322.191 78.500 C 318.090 54.927, 312.479 34.643, 304.765 15.500 C 299.859 3.327, 297.961 1, 292.936 1 C 286.497 1, 285.156 3.030, 282.387 16.964 C 281.029 23.800, 278.800 32.792, 277.434 36.947 C 274.833 44.857, 263.315 68.835, 260.207 72.810 L 258.400 75.121 251.180 62.471 C 240.208 43.248, 222.037 16.839, 215.759 10.990 C 213.220 8.625, 208.299 8.402, 205.281 10.516 C 202.763 12.280, 191.997 26.487, 183.156 39.714 C 177.629 47.982, 163.790 71.369, 162.671 74.331 C 161.986 76.145, 159.688 72.672, 153.190 60 C 144.274 42.613, 140.351 31.246, 137.503 14.552 C 135.684 3.891, 133.644 1, 127.936 1 C 125.859 1, 123.302 1.772, 122.137 2.750 M 204.312 40.162 C 193.090 55.992, 176.537 84.131, 174.530 90.788 C 174.029 92.451, 174.711 94.433, 177.025 98.038 C 178.776 100.767, 180.499 102.990, 180.854 102.977 C 181.209 102.964, 183.300 99.717, 185.500 95.760 C 192.160 83.783, 209.128 58.876, 210.352 59.279 C 211.866 59.778, 225.540 79.822, 233.186 92.750 C 236.521 98.388, 239.406 103, 239.598 103 C 239.790 103, 241.512 100.675, 243.426 97.834 L 246.904 92.669 240.474 80.084 C 233.747 66.918, 224.069 51.073, 215.361 38.968 L 210.223 31.825 204.312 40.162 M 123.658 46.176 C 116.952 69.551, 113.980 87.395, 113.444 107.500 L 113.018 123.500 114.985 111 C 116.891 98.886, 123.396 70.936, 124.968 68.104 C 125.491 67.162, 126.301 68.460, 127.465 72.104 C 131.462 84.627, 142.175 103.956, 159.554 130 C 183.962 166.576, 191.419 182.604, 197.208 210.925 C 198.453 217.016, 199.815 222, 200.236 222 C 202.082 222, 200.368 201.842, 197 183.943 C 192.159 158.217, 183.167 138.900, 159.755 103.936 C 141.187 76.206, 135.922 67.037, 129.928 52 C 127.626 46.225, 125.618 41.354, 125.464 41.176 C 125.311 40.998, 124.498 43.248, 123.658 46.176 M 292.155 47.785 C 287.607 60.985, 279.475 75.621, 262.658 100.870 C 253.270 114.966, 242.793 131.900, 239.378 138.500 C 227.343 161.756, 222.014 182.227, 219.461 215 C 218.533 226.908, 220.441 224.449, 223.408 209.910 C 228.948 182.770, 236.972 165.706, 261.398 129.118 C 278.297 103.805, 288.125 86.201, 292.586 73.250 C 293.581 70.362, 294.698 68, 295.069 68 C 296.598 68, 303.097 95.901, 306.017 115 L 307.775 126.500 307.879 119 C 308.024 108.541, 306.349 90.606, 303.957 77 C 301.841 64.963, 296.361 43.014, 295.165 41.785 C 294.782 41.391, 293.428 44.091, 292.155 47.785 M 142.611 178.500 C 143.142 186.205, 144.447 196.611, 145.577 202.156 C 146.032 204.393, 152.408 210, 154.495 210 C 154.791 210, 153.964 207.863, 152.656 205.250 C 149.623 199.192, 146.532 189.785, 144.029 178.995 L 142.059 170.500 142.611 178.500 M 273.697 189.750 C 272.737 193.463, 270.472 199.537, 268.665 203.250 C 266.858 206.963, 265.639 210, 265.957 210 C 266.275 210, 268.154 208.901, 270.131 207.557 C 272.871 205.695, 273.871 204.209, 274.334 201.307 C 275.304 195.229, 276.327 183, 275.865 183 C 275.633 183, 274.657 186.037, 273.697 189.750" stroke="none" fill="black" fill-rule="evenodd"/>
</svg>