<svg xmlns="http://www.w3.org/2000/svg" width="1150" height="1144" viewBox="0 0 1150 1144" version="1.1">
	<path d="M 565 5.670 C 511.633 7.005, 453.745 16.896, 404.068 33.167 C 333.968 56.128, 272.890 90.086, 214.500 138.563 C 198.129 152.155, 159.701 190.551, 146.032 206.975 C 30.740 345.503, -11.984 523.877, 27.972 699.878 C 42.279 762.894, 71.566 830.224, 108.827 885.760 C 201.544 1023.949, 349.547 1114.203, 514.327 1133.037 C 611.527 1144.148, 711.065 1129.814, 800.242 1091.866 C 966.611 1021.070, 1091.379 871.807, 1130.469 696.805 C 1162.890 551.660, 1138.425 402.090, 1061.720 276.500 C 1037.852 237.419, 1012.466 205.358, 978.551 171.459 C 915.974 108.913, 845.719 64.893, 762.360 36.002 C 701.635 14.955, 630.553 4.030, 565 5.670 M 552.500 25.090 C 493.325 27.827, 432.771 40.827, 377.660 62.625 C 273.441 103.846, 183.823 176.917, 121.487 271.500 C 82.991 329.911, 56.441 395.177, 42.146 466.545 C 29.942 527.468, 28.978 600.572, 39.568 662 C 49.007 716.752, 65.059 765.816, 89.623 815 C 117.392 870.601, 148.161 913.252, 192.454 957.546 C 214.758 979.850, 229.723 992.876, 252.500 1009.814 C 334.456 1070.760, 430.059 1107.147, 532 1116.192 C 553.417 1118.093, 609.113 1117.783, 631.273 1115.640 C 721.039 1106.960, 808.700 1075.533, 883.925 1025.062 C 1001.678 946.059, 1084.663 823.142, 1113.981 684.306 C 1133.632 591.249, 1128.032 488.982, 1098.423 400.160 C 1046.850 245.454, 931.704 123.145, 781 62.994 C 724.475 40.432, 665.698 27.958, 602.054 25.016 C 578.603 23.931, 577.519 23.933, 552.500 25.090 M 799.584 356.749 C 799.172 357.161, 796.734 358.022, 794.167 358.661 C 775.491 363.311, 760.319 370.607, 751.286 379.281 L 745 385.317 745 391.950 C 745 398.442, 745.091 398.673, 749.288 402.792 L 753.576 407 763.761 407 C 771.654 407, 774.909 406.568, 778.223 405.080 C 785.812 401.672, 792.383 399.269, 797.500 398.028 C 802.003 396.937, 802.972 397.029, 807.248 398.954 C 810.422 400.383, 812.534 402.154, 813.619 404.296 C 814.511 406.058, 815.809 408.175, 816.503 409 C 819.643 412.734, 824.546 430.967, 827.662 450.500 C 830.018 465.271, 830.043 507.208, 827.706 524 C 826.826 530.325, 825.854 537.975, 825.546 541 C 824.200 554.207, 819.561 576.436, 814.799 592.500 C 813.168 598, 811.218 604.750, 810.466 607.500 C 808.752 613.768, 806.100 621.877, 804.907 624.500 C 804.407 625.600, 803.351 628.525, 802.560 631 C 799.709 639.928, 791.688 661.557, 789.025 667.500 C 788.532 668.600, 786.027 674.450, 783.459 680.500 C 777.964 693.442, 764.881 721.166, 761.987 726 C 761.493 726.825, 758.116 732.675, 754.483 739 C 742.418 760.004, 733.694 772.705, 721.899 786.438 C 708.424 802.128, 692.891 812.417, 676.688 816.385 C 670.445 817.914, 669.191 817.924, 661.688 816.509 C 645.655 813.484, 631.914 804.770, 620.679 790.500 C 609.355 776.117, 600.640 760.499, 592.220 739.500 C 591.117 736.750, 589.267 732.167, 588.108 729.315 C 586.948 726.463, 586 723.606, 586 722.966 C 586 722.326, 585.355 720.384, 584.566 718.651 C 583.078 715.382, 580.817 707.570, 578.555 697.883 C 577.833 694.794, 576.784 690.744, 576.224 688.883 C 572.070 675.092, 567.822 650.924, 564.029 619.500 C 559.772 584.230, 560.409 467.617, 565.111 421.500 C 566.162 411.188, 566.110 408.179, 564.741 400.109 C 563.205 391.060, 562.974 390.542, 558.361 385.859 C 554.177 381.611, 553.058 381, 549.465 381 C 546.791 381, 543.409 379.946, 539.785 377.983 C 526.907 371.008, 511.907 367.568, 483 364.961 C 470.971 363.876, 453.350 363.027, 443 363.033 C 425.265 363.044, 369.116 366.246, 366 367.424 C 365.175 367.736, 358.650 368.666, 351.500 369.490 C 335.606 371.321, 304.552 376.777, 297.500 378.977 C 295.850 379.492, 292.250 380.386, 289.500 380.965 C 283.698 382.187, 272.058 385.578, 267 387.522 C 265.075 388.262, 260.353 390.080, 256.506 391.563 C 246.490 395.424, 233.533 402.331, 228.139 406.686 C 210.295 421.092, 203.371 434.715, 204.186 453.816 C 204.547 462.271, 205.026 464.388, 207.958 470.500 C 211.981 478.886, 221.849 489.597, 233.427 498.146 C 241.325 503.979, 241.380 504, 248.389 504 C 255.309 504, 255.495 503.931, 259.712 499.792 L 264 495.584 264 487.929 L 264 480.274 259.250 475.887 C 256.637 473.474, 252.198 469.934, 249.384 468.019 C 243.756 464.191, 240 459.276, 240 455.742 C 240 448.275, 259.173 436.505, 286.500 427.196 C 301.970 421.926, 313.117 419.351, 337 415.530 C 342.775 414.606, 349.525 413.432, 352 412.920 C 354.475 412.409, 362.746 411.307, 370.381 410.473 C 378.015 409.639, 384.540 408.787, 384.881 408.580 C 385.221 408.373, 395.400 407.424, 407.500 406.471 C 444.683 403.542, 477.053 405.341, 500.740 411.653 L 505.979 413.050 502.261 418.275 C 496.858 425.866, 476.492 456.338, 475.679 458.046 C 475.298 458.846, 473.218 462.200, 471.057 465.500 C 468.895 468.800, 464.511 475.969, 461.314 481.431 C 458.116 486.893, 454.497 492.968, 453.270 494.931 C 450.802 498.882, 449.074 501.883, 444.242 510.614 C 442.450 513.851, 439.655 518.750, 438.032 521.500 C 436.408 524.250, 434.764 527.175, 434.378 528 C 433.790 529.257, 419.747 554.238, 416.952 559 C 416.467 559.825, 414.431 563.650, 412.427 567.500 C 410.422 571.350, 408.440 574.950, 408.023 575.500 C 405.867 578.339, 384.298 620.631, 377.166 636 C 374.997 640.675, 371.549 648.100, 369.505 652.500 C 363.981 664.389, 358.218 677.666, 355.400 685 C 354.026 688.575, 352.024 693.425, 350.951 695.777 C 349.878 698.129, 348.985 700.604, 348.966 701.277 C 348.947 701.950, 348.063 704.300, 347 706.500 C 345.937 708.700, 345.053 711.107, 345.034 711.849 C 345.015 712.591, 344.359 714.616, 343.575 716.349 C 342.791 718.082, 340.961 723.550, 339.507 728.500 C 338.053 733.450, 336.260 739.075, 335.522 741 C 334.046 744.854, 331.313 755.715, 329.861 763.500 C 329.348 766.250, 328.182 771.425, 327.269 775 C 325.944 780.191, 325.600 786.637, 325.563 807 L 325.517 832.500 328.302 839.500 C 331.213 846.816, 336.016 852.627, 345.340 860.114 L 350.180 864 363.340 863.996 C 374.952 863.993, 376.912 863.744, 380 861.883 C 389.774 855.991, 399.872 844.725, 401.888 837.464 C 402.494 835.284, 402.991 828.981, 402.994 823.458 L 403 813.416 398.712 809.208 C 394.552 805.125, 394.228 805, 387.849 805 L 381.274 805 376.887 809.877 C 374.474 812.560, 371.649 815.991, 370.609 817.502 C 368.835 820.080, 368.654 820.133, 367.662 818.374 C 366.262 815.892, 366.391 794.962, 367.850 788 C 368.484 784.975, 369.452 780.250, 370.003 777.500 C 372.712 763.960, 385.660 724.555, 392.019 710.500 C 393.014 708.300, 394.805 704.250, 396 701.500 C 400.427 691.308, 402.504 686.972, 414.200 663.500 C 428.289 635.228, 429.640 632.702, 444.850 606.206 C 456.721 585.527, 457.504 584.186, 464.500 572.536 C 466.700 568.872, 469.181 564.665, 470.014 563.187 C 470.847 561.709, 472.917 558.475, 474.616 556 C 476.314 553.525, 477.883 551.048, 478.102 550.496 C 478.321 549.944, 481.141 545.444, 484.368 540.496 C 487.596 535.548, 491.833 529.025, 493.784 526 C 495.735 522.975, 498.495 518.798, 499.916 516.718 C 501.337 514.638, 503.625 511.174, 505 509.019 C 506.375 506.865, 509.525 502.162, 512 498.569 L 516.500 492.036 517.192 540.768 C 518.143 607.750, 520.898 663.483, 523.941 677.312 C 524.448 679.615, 525.160 684.875, 525.524 689 C 525.888 693.125, 526.631 698.257, 527.173 700.404 C 527.716 702.552, 528.746 707.727, 529.462 711.904 C 531.645 724.647, 533.984 733.645, 540.083 752.762 C 542.078 759.018, 545.988 769.832, 547.943 774.500 C 549.520 778.268, 558.990 797.498, 560.246 799.483 C 576.550 825.257, 594.708 843.611, 612 851.798 C 624.174 857.562, 637.276 860, 656.076 860 C 675.067 860, 687.218 857.331, 705 849.252 C 711.871 846.131, 725.147 837.471, 733.500 830.662 C 741.457 824.177, 760.603 805.193, 767.561 796.891 C 774.762 788.298, 791.155 766.215, 795.122 759.764 C 796.564 757.419, 799.022 753.475, 800.584 751 C 811.270 734.068, 828.168 701.077, 837.463 679 C 838.968 675.425, 840.829 671.306, 841.600 669.846 C 842.370 668.386, 843 666.693, 843 666.085 C 843 665.476, 843.903 663.057, 845.007 660.709 C 846.110 658.361, 847.438 655.104, 847.957 653.470 C 848.475 651.837, 850.058 647.350, 851.474 643.500 C 856.141 630.812, 859.035 621.726, 865.094 600.750 C 870.496 582.046, 872.835 572.870, 874.079 565.500 C 874.542 562.750, 875.601 557.575, 876.430 554 C 885.218 516.114, 887.964 459.023, 882.659 424.500 C 881.199 415.002, 877.810 401.429, 876.125 398.338 C 875.575 397.327, 873.907 393.800, 872.420 390.500 C 866.949 378.358, 854.321 365.316, 843.384 360.510 C 840.148 359.088, 836.719 357.492, 835.764 356.962 C 833.734 355.837, 800.691 355.643, 799.584 356.749" stroke="none" fill="black" fill-rule="evenodd"/>
</svg>