<svg xmlns="http://www.w3.org/2000/svg" width="512" height="512" viewBox="0 0 512 512" version="1.1">
	<path d="M 241 42.056 C 140.059 47.918, 54.374 124.066, 38.518 222 C 37.673 227.225, 36.698 238.250, 36.353 246.500 C 33.915 304.780, 55.817 360.427, 97.846 402.737 C 130.691 435.801, 173.088 457.421, 221 465.539 C 233.964 467.736, 265.807 468.571, 280.108 467.090 C 316.033 463.368, 350.938 451.020, 380.500 431.573 C 394.359 422.456, 402.162 416.202, 413.396 405.207 C 451.281 368.127, 472.912 322.659, 477.060 271.384 C 484.058 184.866, 436.894 103.923, 356.500 64.483 C 320.220 46.684, 283.633 39.580, 241 42.056 M 260.763 119.702 C 260.618 158.641, 260.618 222.581, 260.763 261.790 L 261.026 333.080 269.263 332.790 L 277.500 332.500 305.313 282.500 C 320.611 255, 336.847 225.325, 341.395 216.556 C 345.943 207.787, 350.189 200.437, 350.832 200.223 C 351.715 199.928, 352 216.090, 352 266.467 L 352 333.100 357.750 332.800 L 363.500 332.500 363.500 261 L 363.500 189.500 353.500 189.500 L 343.500 189.500 318.154 235 C 304.214 260.025, 288.518 288.938, 283.275 299.250 C 277.348 310.906, 273.179 318, 272.254 318 C 271.151 318, 270.965 317.419, 271.535 315.750 C 272.075 314.169, 273.500 121.678, 273.500 50.383 C 273.500 50.318, 270.693 49.959, 267.263 49.584 L 261.027 48.904 260.763 119.702 M 231 59.695 C 210.160 61.927, 184.664 69.662, 164 80.023 C 100.122 112.049, 58.593 173.078, 54.145 241.459 C 50.945 290.642, 65.501 337.002, 96.053 374.931 C 103.690 384.413, 118.688 399.528, 126.614 405.732 L 130.727 408.952 131.355 403.726 C 132.935 390.575, 132.854 390.335, 123.865 381.498 C 88.858 347.081, 69.942 302.488, 70.020 254.564 C 70.123 190.561, 104.330 132.663, 161.892 99.061 C 182.165 87.226, 207.852 78.713, 232.500 75.660 L 242.500 74.421 242.792 66.711 L 243.084 59 238.792 59.160 C 236.431 59.248, 232.925 59.489, 231 59.695 M 299 70.665 L 299 78.557 306.250 80.391 C 324.462 84.999, 346.747 95.196, 364.086 106.854 C 382.263 119.076, 398.236 134.655, 411.398 153 C 443.783 198.136, 452.565 256.910, 434.931 310.500 C 430.776 323.127, 419.257 345.752, 411.257 357 C 407.541 362.225, 398.650 372.387, 391.500 379.582 C 365.745 405.499, 337.628 421.373, 301.500 430.393 C 266.039 439.246, 221.072 436.121, 187.165 422.449 C 182.460 420.552, 178.521 419, 178.410 419 C 178.299 419, 177.885 422.654, 177.489 427.120 C 176.926 433.488, 177.065 435.432, 178.135 436.128 C 181.205 438.124, 204.941 445.121, 217.287 447.669 C 229.730 450.236, 232.044 450.395, 257 450.395 C 282.060 450.395, 284.231 450.244, 296.948 447.623 C 336.800 439.408, 371.397 421.557, 399.737 394.587 C 425.413 370.153, 444.753 338.176, 453.353 305.935 C 459.021 284.689, 459.460 281.042, 459.480 255 C 459.498 233.451, 459.227 229.155, 457.235 219.332 C 444.767 157.842, 405.853 107.777, 348.500 79.438 C 335.335 72.933, 312.444 64.769, 303.750 63.478 L 299 62.773 299 70.665 M 149 311.731 L 149 434.533 154.406 437.766 C 157.380 439.545, 160.080 441, 160.406 441 C 160.733 441, 161 386.775, 161 320.500 C 161 247.601, 161.364 200, 161.922 200 C 162.430 200, 166.953 207.988, 171.974 217.750 C 176.996 227.512, 193.341 257.438, 208.297 284.250 L 235.489 333 243.745 333 L 252 333 252 261 L 252 189 245.881 189 L 239.762 189 240.158 253.509 C 240.376 288.989, 240.177 317.892, 239.715 317.738 C 239.253 317.584, 234.013 308.018, 228.072 296.479 C 222.130 284.941, 206.438 256.150, 193.202 232.500 L 169.135 189.500 159.068 189.215 L 149 188.930 149 311.731" stroke="none" fill="black" fill-rule="evenodd"/>
</svg>